<svg height="720" viewBox="0 0 1280 720" width="1280" xmlns="http://www.w3.org/2000/svg">
<g class="g-chart">
<g class="g-title" transform="translate(640,25)">
<text dy=".35em" fill="#777" font-family="sans-serif" font-size="24px" text-anchor="middle" x="0" y="0">
petal width (cm) vs petal length (cm)
</text>
</g>
<g class="x-axis" transform="translate(60,670)">
<line shape-rendering="crispEdges" stroke="#bbbbbb" stroke-width="1" x1="0" x2="1180" y1="0" y2="0"/>
<g class="tick" transform="translate(442.49997,0)">
<line shape-rendering="crispEdges" stroke="#bbbbbb" stroke-width="1px" x1="0" x2="0" y1="0" y2="6"/>
<text dy=".35em" fill="#777" font-family="sans-serif" font-size="12px" text-anchor="middle" transform="rotate(0,0,16)" x="0" y="16">
1
</text>
</g>
<g class="tick" transform="translate(934.1666,0)">
<line shape-rendering="crispEdges" stroke="#bbbbbb" stroke-width="1px" x1="0" x2="0" y1="0" y2="6"/>
<text dy=".35em" fill="#777" font-family="sans-serif" font-size="12px" text-anchor="middle" transform="rotate(0,0,16)" x="0" y="16">
2
</text>
</g>
<text fill="#777" font-family="sans-serif" font-size="14px" text-anchor="middle" transform="rotate(0)" x="590" y="42">
petal length (cm)
</text>
</g>
<g class="y-axis" transform="translate(60,90)">
<line shape-rendering="crispEdges" stroke="#bbbbbb" stroke-width="1" x1="0" x2="0" y1="0" y2="580"/>
<g class="tick" transform="translate(0,580)">
<line shape-rendering="crispEdges" stroke="#bbbbbb" stroke-width="1px" x1="0" x2="-6" y1="0" y2="0"/>
<text dy=".35em" fill="#777" font-family="sans-serif" font-size="12px" text-anchor="end" transform="rotate(0,-12,0)" x="-12" y="0">
1
</text>
</g>
<g class="tick" transform="translate(0,481.69492)">
<line shape-rendering="crispEdges" stroke="#bbbbbb" stroke-width="1px" x1="0" x2="-6" y1="0" y2="0"/>
<text dy=".35em" fill="#777" font-family="sans-serif" font-size="12px" text-anchor="end" transform="rotate(0,-12,0)" x="-12" y="0">
2
</text>
</g>
<g class="tick" transform="translate(0,383.38983)">
<line shape-rendering="crispEdges" stroke="#bbbbbb" stroke-width="1px" x1="0" x2="-6" y1="0" y2="0"/>
<text dy=".35em" fill="#777" font-family="sans-serif" font-size="12px" text-anchor="end" transform="rotate(0,-12,0)" x="-12" y="0">
3
</text>
</g>
<g class="tick" transform="translate(0,285.08475)">
<line shape-rendering="crispEdges" stroke="#bbbbbb" stroke-width="1px" x1="0" x2="-6" y1="0" y2="0"/>
<text dy=".35em" fill="#777" font-family="sans-serif" font-size="12px" text-anchor="end" transform="rotate(0,-12,0)" x="-12" y="0">
4
</text>
</g>
<g class="tick" transform="translate(0,186.77966)">
<line shape-rendering="crispEdges" stroke="#bbbbbb" stroke-width="1px" x1="0" x2="-6" y1="0" y2="0"/>
<text dy=".35em" fill="#777" font-family="sans-serif" font-size="12px" text-anchor="end" transform="rotate(0,-12,0)" x="-12" y="0">
5
</text>
</g>
<g class="tick" transform="translate(0,88.47461)">
<line shape-rendering="crispEdges" stroke="#bbbbbb" stroke-width="1px" x1="0" x2="-6" y1="0" y2="0"/>
<text dy=".35em" fill="#777" font-family="sans-serif" font-size="12px" text-anchor="end" transform="rotate(0,-12,0)" x="-12" y="0">
6
</text>
</g>
<text fill="#777" font-family="sans-serif" font-size="14px" text-anchor="middle" transform="rotate(-90)" x="-290" y="-42">
petal width (cm)
</text>
</g>
<g class="g-view" transform="translate(60,90)">
<g>
<g class="scatter-point" transform="translate(49.166664,540.678)">
<circle cx="0" cy="0" fill="#1b9e77" r="5"/>
</g>
<g class="scatter-point" transform="translate(49.166664,540.678)">
<circle cx="0" cy="0" fill="#1b9e77" r="5"/>
</g>
<g class="scatter-point" transform="translate(49.166664,550.5085)">
<circle cx="0" cy="0" fill="#1b9e77" r="5"/>
</g>
<g class="scatter-point" transform="translate(49.166664,530.8475)">
<circle cx="0" cy="0" fill="#1b9e77" r="5"/>
</g>
<g class="scatter-point" transform="translate(49.166664,540.678)">
<circle cx="0" cy="0" fill="#1b9e77" r="5"/>
</g>
<g class="scatter-point" transform="translate(147.5,511.18643)">
<circle cx="0" cy="0" fill="#1b9e77" r="5"/>
</g>
<g class="scatter-point" transform="translate(98.333336,540.678)">
<circle cx="0" cy="0" fill="#1b9e77" r="5"/>
</g>
<g class="scatter-point" transform="translate(49.166664,530.8475)">
<circle cx="0" cy="0" fill="#1b9e77" r="5"/>
</g>
<g class="scatter-point" transform="translate(49.166664,540.678)">
<circle cx="0" cy="0" fill="#1b9e77" r="5"/>
</g>
<g class="scatter-point" transform="translate(0,530.8475)">
<circle cx="0" cy="0" fill="#1b9e77" r="5"/>
</g>
<g class="scatter-point" transform="translate(49.166664,530.8475)">
<circle cx="0" cy="0" fill="#1b9e77" r="5"/>
</g>
<g class="scatter-point" transform="translate(49.166664,521.01697)">
<circle cx="0" cy="0" fill="#1b9e77" r="5"/>
</g>
<g class="scatter-point" transform="translate(0,540.678)">
<circle cx="0" cy="0" fill="#1b9e77" r="5"/>
</g>
<g class="scatter-point" transform="translate(0,570.1695)">
<circle cx="0" cy="0" fill="#1b9e77" r="5"/>
</g>
<g class="scatter-point" transform="translate(49.166664,560.339)">
<circle cx="0" cy="0" fill="#1b9e77" r="5"/>
</g>
<g class="scatter-point" transform="translate(147.5,530.8475)">
<circle cx="0" cy="0" fill="#1b9e77" r="5"/>
</g>
<g class="scatter-point" transform="translate(147.5,550.5085)">
<circle cx="0" cy="0" fill="#1b9e77" r="5"/>
</g>
<g class="scatter-point" transform="translate(98.333336,540.678)">
<circle cx="0" cy="0" fill="#1b9e77" r="5"/>
</g>
<g class="scatter-point" transform="translate(98.333336,511.18643)">
<circle cx="0" cy="0" fill="#1b9e77" r="5"/>
</g>
<g class="scatter-point" transform="translate(98.333336,530.8475)">
<circle cx="0" cy="0" fill="#1b9e77" r="5"/>
</g>
<g class="scatter-point" transform="translate(49.166664,511.18643)">
<circle cx="0" cy="0" fill="#1b9e77" r="5"/>
</g>
<g class="scatter-point" transform="translate(147.5,530.8475)">
<circle cx="0" cy="0" fill="#1b9e77" r="5"/>
</g>
<g class="scatter-point" transform="translate(49.166664,580)">
<circle cx="0" cy="0" fill="#1b9e77" r="5"/>
</g>
<g class="scatter-point" transform="translate(196.66666,511.18643)">
<circle cx="0" cy="0" fill="#1b9e77" r="5"/>
</g>
<g class="scatter-point" transform="translate(49.166664,491.52542)">
<circle cx="0" cy="0" fill="#1b9e77" r="5"/>
</g>
<g class="scatter-point" transform="translate(49.166664,521.01697)">
<circle cx="0" cy="0" fill="#1b9e77" r="5"/>
</g>
<g class="scatter-point" transform="translate(147.5,521.01697)">
<circle cx="0" cy="0" fill="#1b9e77" r="5"/>
</g>
<g class="scatter-point" transform="translate(49.166664,530.8475)">
<circle cx="0" cy="0" fill="#1b9e77" r="5"/>
</g>
<g class="scatter-point" transform="translate(49.166664,540.678)">
<circle cx="0" cy="0" fill="#1b9e77" r="5"/>
</g>
<g class="scatter-point" transform="translate(49.166664,521.01697)">
<circle cx="0" cy="0" fill="#1b9e77" r="5"/>
</g>
<g class="scatter-point" transform="translate(49.166664,521.01697)">
<circle cx="0" cy="0" fill="#1b9e77" r="5"/>
</g>
<g class="scatter-point" transform="translate(147.5,530.8475)">
<circle cx="0" cy="0" fill="#1b9e77" r="5"/>
</g>
<g class="scatter-point" transform="translate(0,530.8475)">
<circle cx="0" cy="0" fill="#1b9e77" r="5"/>
</g>
<g class="scatter-point" transform="translate(49.166664,540.678)">
<circle cx="0" cy="0" fill="#1b9e77" r="5"/>
</g>
<g class="scatter-point" transform="translate(49.166664,530.8475)">
<circle cx="0" cy="0" fill="#1b9e77" r="5"/>
</g>
<g class="scatter-point" transform="translate(49.166664,560.339)">
<circle cx="0" cy="0" fill="#1b9e77" r="5"/>
</g>
<g class="scatter-point" transform="translate(49.166664,550.5085)">
<circle cx="0" cy="0" fill="#1b9e77" r="5"/>
</g>
<g class="scatter-point" transform="translate(0,540.678)">
<circle cx="0" cy="0" fill="#1b9e77" r="5"/>
</g>
<g class="scatter-point" transform="translate(49.166664,550.5085)">
<circle cx="0" cy="0" fill="#1b9e77" r="5"/>
</g>
<g class="scatter-point" transform="translate(49.166664,530.8475)">
<circle cx="0" cy="0" fill="#1b9e77" r="5"/>
</g>
<g class="scatter-point" transform="translate(98.333336,550.5085)">
<circle cx="0" cy="0" fill="#1b9e77" r="5"/>
</g>
<g class="scatter-point" transform="translate(98.333336,550.5085)">
<circle cx="0" cy="0" fill="#1b9e77" r="5"/>
</g>
<g class="scatter-point" transform="translate(49.166664,550.5085)">
<circle cx="0" cy="0" fill="#1b9e77" r="5"/>
</g>
<g class="scatter-point" transform="translate(245.83333,521.01697)">
<circle cx="0" cy="0" fill="#1b9e77" r="5"/>
</g>
<g class="scatter-point" transform="translate(147.5,491.52542)">
<circle cx="0" cy="0" fill="#1b9e77" r="5"/>
</g>
<g class="scatter-point" transform="translate(98.333336,540.678)">
<circle cx="0" cy="0" fill="#1b9e77" r="5"/>
</g>
<g class="scatter-point" transform="translate(49.166664,521.01697)">
<circle cx="0" cy="0" fill="#1b9e77" r="5"/>
</g>
<g class="scatter-point" transform="translate(49.166664,540.678)">
<circle cx="0" cy="0" fill="#1b9e77" r="5"/>
</g>
<g class="scatter-point" transform="translate(49.166664,530.8475)">
<circle cx="0" cy="0" fill="#1b9e77" r="5"/>
</g>
<g class="scatter-point" transform="translate(49.166664,540.678)">
<circle cx="0" cy="0" fill="#1b9e77" r="5"/>
</g>
<g class="scatter-point" transform="translate(639.1666,216.27121)">
<circle cx="0" cy="0" fill="#1b9e77" r="5"/>
</g>
<g class="scatter-point" transform="translate(688.3333,235.93219)">
<circle cx="0" cy="0" fill="#1b9e77" r="5"/>
</g>
<g class="scatter-point" transform="translate(688.3333,196.61017)">
<circle cx="0" cy="0" fill="#1b9e77" r="5"/>
</g>
<g class="scatter-point" transform="translate(589.99994,285.08475)">
<circle cx="0" cy="0" fill="#1b9e77" r="5"/>
</g>
<g class="scatter-point" transform="translate(688.3333,226.10172)">
<circle cx="0" cy="0" fill="#1b9e77" r="5"/>
</g>
<g class="scatter-point" transform="translate(589.99994,235.93219)">
<circle cx="0" cy="0" fill="#1b9e77" r="5"/>
</g>
<g class="scatter-point" transform="translate(737.5,216.27121)">
<circle cx="0" cy="0" fill="#1b9e77" r="5"/>
</g>
<g class="scatter-point" transform="translate(442.49997,353.89832)">
<circle cx="0" cy="0" fill="#1b9e77" r="5"/>
</g>
<g class="scatter-point" transform="translate(589.99994,226.10172)">
<circle cx="0" cy="0" fill="#1b9e77" r="5"/>
</g>
<g class="scatter-point" transform="translate(639.1666,294.91525)">
<circle cx="0" cy="0" fill="#1b9e77" r="5"/>
</g>
<g class="scatter-point" transform="translate(442.49997,334.2373)">
<circle cx="0" cy="0" fill="#1b9e77" r="5"/>
</g>
<g class="scatter-point" transform="translate(688.3333,265.42377)">
<circle cx="0" cy="0" fill="#1b9e77" r="5"/>
</g>
<g class="scatter-point" transform="translate(442.49997,285.08475)">
<circle cx="0" cy="0" fill="#1b9e77" r="5"/>
</g>
<g class="scatter-point" transform="translate(639.1666,216.27121)">
<circle cx="0" cy="0" fill="#1b9e77" r="5"/>
</g>
<g class="scatter-point" transform="translate(589.99994,324.4068)">
<circle cx="0" cy="0" fill="#1b9e77" r="5"/>
</g>
<g class="scatter-point" transform="translate(639.1666,245.76273)">
<circle cx="0" cy="0" fill="#1b9e77" r="5"/>
</g>
<g class="scatter-point" transform="translate(688.3333,235.93219)">
<circle cx="0" cy="0" fill="#1b9e77" r="5"/>
</g>
<g class="scatter-point" transform="translate(442.49997,275.25424)">
<circle cx="0" cy="0" fill="#1b9e77" r="5"/>
</g>
<g class="scatter-point" transform="translate(688.3333,235.93219)">
<circle cx="0" cy="0" fill="#1b9e77" r="5"/>
</g>
<g class="scatter-point" transform="translate(491.66666,294.91525)">
<circle cx="0" cy="0" fill="#1b9e77" r="5"/>
</g>
<g class="scatter-point" transform="translate(835.83325,206.44067)">
<circle cx="0" cy="0" fill="#1b9e77" r="5"/>
</g>
<g class="scatter-point" transform="translate(589.99994,285.08475)">
<circle cx="0" cy="0" fill="#1b9e77" r="5"/>
</g>
<g class="scatter-point" transform="translate(688.3333,196.61017)">
<circle cx="0" cy="0" fill="#1b9e77" r="5"/>
</g>
<g class="scatter-point" transform="translate(540.8333,216.27121)">
<circle cx="0" cy="0" fill="#1b9e77" r="5"/>
</g>
<g class="scatter-point" transform="translate(589.99994,255.5932)">
<circle cx="0" cy="0" fill="#1b9e77" r="5"/>
</g>
<g class="scatter-point" transform="translate(639.1666,245.76273)">
<circle cx="0" cy="0" fill="#1b9e77" r="5"/>
</g>
<g class="scatter-point" transform="translate(639.1666,206.44067)">
<circle cx="0" cy="0" fill="#1b9e77" r="5"/>
</g>
<g class="scatter-point" transform="translate(786.6666,186.77966)">
<circle cx="0" cy="0" fill="#1b9e77" r="5"/>
</g>
<g class="scatter-point" transform="translate(688.3333,235.93219)">
<circle cx="0" cy="0" fill="#1b9e77" r="5"/>
</g>
<g class="scatter-point" transform="translate(442.49997,334.2373)">
<circle cx="0" cy="0" fill="#1b9e77" r="5"/>
</g>
<g class="scatter-point" transform="translate(491.66666,304.74576)">
<circle cx="0" cy="0" fill="#1b9e77" r="5"/>
</g>
<g class="scatter-point" transform="translate(442.49997,314.57626)">
<circle cx="0" cy="0" fill="#1b9e77" r="5"/>
</g>
<g class="scatter-point" transform="translate(540.8333,294.91525)">
<circle cx="0" cy="0" fill="#1b9e77" r="5"/>
</g>
<g class="scatter-point" transform="translate(737.5,176.94916)">
<circle cx="0" cy="0" fill="#1b9e77" r="5"/>
</g>
<g class="scatter-point" transform="translate(688.3333,235.93219)">
<circle cx="0" cy="0" fill="#1b9e77" r="5"/>
</g>
<g class="scatter-point" transform="translate(737.5,235.93219)">
<circle cx="0" cy="0" fill="#1b9e77" r="5"/>
</g>
<g class="scatter-point" transform="translate(688.3333,216.27121)">
<circle cx="0" cy="0" fill="#1b9e77" r="5"/>
</g>
<g class="scatter-point" transform="translate(589.99994,245.76273)">
<circle cx="0" cy="0" fill="#1b9e77" r="5"/>
</g>
<g class="scatter-point" transform="translate(589.99994,275.25424)">
<circle cx="0" cy="0" fill="#1b9e77" r="5"/>
</g>
<g class="scatter-point" transform="translate(589.99994,285.08475)">
<circle cx="0" cy="0" fill="#1b9e77" r="5"/>
</g>
<g class="scatter-point" transform="translate(540.8333,245.76273)">
<circle cx="0" cy="0" fill="#1b9e77" r="5"/>
</g>
<g class="scatter-point" transform="translate(639.1666,226.10172)">
<circle cx="0" cy="0" fill="#1b9e77" r="5"/>
</g>
<g class="scatter-point" transform="translate(540.8333,285.08475)">
<circle cx="0" cy="0" fill="#1b9e77" r="5"/>
</g>
<g class="scatter-point" transform="translate(442.49997,353.89832)">
<circle cx="0" cy="0" fill="#1b9e77" r="5"/>
</g>
<g class="scatter-point" transform="translate(589.99994,265.42377)">
<circle cx="0" cy="0" fill="#1b9e77" r="5"/>
</g>
<g class="scatter-point" transform="translate(540.8333,265.42377)">
<circle cx="0" cy="0" fill="#1b9e77" r="5"/>
</g>
<g class="scatter-point" transform="translate(589.99994,265.42377)">
<circle cx="0" cy="0" fill="#1b9e77" r="5"/>
</g>
<g class="scatter-point" transform="translate(589.99994,255.5932)">
<circle cx="0" cy="0" fill="#1b9e77" r="5"/>
</g>
<g class="scatter-point" transform="translate(491.66666,383.38983)">
<circle cx="0" cy="0" fill="#1b9e77" r="5"/>
</g>
<g class="scatter-point" transform="translate(589.99994,275.25424)">
<circle cx="0" cy="0" fill="#1b9e77" r="5"/>
</g>
<g class="scatter-point" transform="translate(1180,88.47461)">
<circle cx="0" cy="0" fill="#1b9e77" r="5"/>
</g>
<g class="scatter-point" transform="translate(884.99994,176.94916)">
<circle cx="0" cy="0" fill="#1b9e77" r="5"/>
</g>
<g class="scatter-point" transform="translate(983.33325,98.305084)">
<circle cx="0" cy="0" fill="#1b9e77" r="5"/>
</g>
<g class="scatter-point" transform="translate(835.83325,127.79663)">
<circle cx="0" cy="0" fill="#1b9e77" r="5"/>
</g>
<g class="scatter-point" transform="translate(1032.5,108.13559)">
<circle cx="0" cy="0" fill="#1b9e77" r="5"/>
</g>
<g class="scatter-point" transform="translate(983.33325,29.491516)">
<circle cx="0" cy="0" fill="#1b9e77" r="5"/>
</g>
<g class="scatter-point" transform="translate(786.6666,235.93219)">
<circle cx="0" cy="0" fill="#1b9e77" r="5"/>
</g>
<g class="scatter-point" transform="translate(835.83325,58.983032)">
<circle cx="0" cy="0" fill="#1b9e77" r="5"/>
</g>
<g class="scatter-point" transform="translate(835.83325,108.13559)">
<circle cx="0" cy="0" fill="#1b9e77" r="5"/>
</g>
<g class="scatter-point" transform="translate(1180,78.64407)">
<circle cx="0" cy="0" fill="#1b9e77" r="5"/>
</g>
<g class="scatter-point" transform="translate(934.1666,176.94916)">
<circle cx="0" cy="0" fill="#1b9e77" r="5"/>
</g>
<g class="scatter-point" transform="translate(884.99994,157.28812)">
<circle cx="0" cy="0" fill="#1b9e77" r="5"/>
</g>
<g class="scatter-point" transform="translate(983.33325,137.62714)">
<circle cx="0" cy="0" fill="#1b9e77" r="5"/>
</g>
<g class="scatter-point" transform="translate(934.1666,186.77966)">
<circle cx="0" cy="0" fill="#1b9e77" r="5"/>
</g>
<g class="scatter-point" transform="translate(1130.8334,176.94916)">
<circle cx="0" cy="0" fill="#1b9e77" r="5"/>
</g>
<g class="scatter-point" transform="translate(1081.6666,157.28812)">
<circle cx="0" cy="0" fill="#1b9e77" r="5"/>
</g>
<g class="scatter-point" transform="translate(835.83325,137.62714)">
<circle cx="0" cy="0" fill="#1b9e77" r="5"/>
</g>
<g class="scatter-point" transform="translate(1032.5,19.661072)">
<circle cx="0" cy="0" fill="#1b9e77" r="5"/>
</g>
<g class="scatter-point" transform="translate(1081.6666,0)">
<circle cx="0" cy="0" fill="#1b9e77" r="5"/>
</g>
<g class="scatter-point" transform="translate(688.3333,186.77966)">
<circle cx="0" cy="0" fill="#1b9e77" r="5"/>
</g>
<g class="scatter-point" transform="translate(1081.6666,117.966125)">
<circle cx="0" cy="0" fill="#1b9e77" r="5"/>
</g>
<g class="scatter-point" transform="translate(934.1666,196.61017)">
<circle cx="0" cy="0" fill="#1b9e77" r="5"/>
</g>
<g class="scatter-point" transform="translate(934.1666,19.661072)">
<circle cx="0" cy="0" fill="#1b9e77" r="5"/>
</g>
<g class="scatter-point" transform="translate(835.83325,196.61017)">
<circle cx="0" cy="0" fill="#1b9e77" r="5"/>
</g>
<g class="scatter-point" transform="translate(983.33325,117.966125)">
<circle cx="0" cy="0" fill="#1b9e77" r="5"/>
</g>
<g class="scatter-point" transform="translate(835.83325,88.47461)">
<circle cx="0" cy="0" fill="#1b9e77" r="5"/>
</g>
<g class="scatter-point" transform="translate(835.83325,206.44067)">
<circle cx="0" cy="0" fill="#1b9e77" r="5"/>
</g>
<g class="scatter-point" transform="translate(835.83325,196.61017)">
<circle cx="0" cy="0" fill="#1b9e77" r="5"/>
</g>
<g class="scatter-point" transform="translate(983.33325,127.79663)">
<circle cx="0" cy="0" fill="#1b9e77" r="5"/>
</g>
<g class="scatter-point" transform="translate(737.5,108.13559)">
<circle cx="0" cy="0" fill="#1b9e77" r="5"/>
</g>
<g class="scatter-point" transform="translate(884.99994,78.64407)">
<circle cx="0" cy="0" fill="#1b9e77" r="5"/>
</g>
<g class="scatter-point" transform="translate(934.1666,49.152527)">
<circle cx="0" cy="0" fill="#1b9e77" r="5"/>
</g>
<g class="scatter-point" transform="translate(1032.5,127.79663)">
<circle cx="0" cy="0" fill="#1b9e77" r="5"/>
</g>
<g class="scatter-point" transform="translate(688.3333,176.94916)">
<circle cx="0" cy="0" fill="#1b9e77" r="5"/>
</g>
<g class="scatter-point" transform="translate(639.1666,127.79663)">
<circle cx="0" cy="0" fill="#1b9e77" r="5"/>
</g>
<g class="scatter-point" transform="translate(1081.6666,78.64407)">
<circle cx="0" cy="0" fill="#1b9e77" r="5"/>
</g>
<g class="scatter-point" transform="translate(1130.8334,127.79663)">
<circle cx="0" cy="0" fill="#1b9e77" r="5"/>
</g>
<g class="scatter-point" transform="translate(835.83325,137.62714)">
<circle cx="0" cy="0" fill="#1b9e77" r="5"/>
</g>
<g class="scatter-point" transform="translate(835.83325,206.44067)">
<circle cx="0" cy="0" fill="#1b9e77" r="5"/>
</g>
<g class="scatter-point" transform="translate(983.33325,147.45764)">
<circle cx="0" cy="0" fill="#1b9e77" r="5"/>
</g>
<g class="scatter-point" transform="translate(1130.8334,127.79663)">
<circle cx="0" cy="0" fill="#1b9e77" r="5"/>
</g>
<g class="scatter-point" transform="translate(1081.6666,176.94916)">
<circle cx="0" cy="0" fill="#1b9e77" r="5"/>
</g>
<g class="scatter-point" transform="translate(884.99994,176.94916)">
<circle cx="0" cy="0" fill="#1b9e77" r="5"/>
</g>
<g class="scatter-point" transform="translate(1081.6666,98.305084)">
<circle cx="0" cy="0" fill="#1b9e77" r="5"/>
</g>
<g class="scatter-point" transform="translate(1180,117.966125)">
<circle cx="0" cy="0" fill="#1b9e77" r="5"/>
</g>
<g class="scatter-point" transform="translate(1081.6666,167.11868)">
<circle cx="0" cy="0" fill="#1b9e77" r="5"/>
</g>
<g class="scatter-point" transform="translate(884.99994,186.77966)">
<circle cx="0" cy="0" fill="#1b9e77" r="5"/>
</g>
<g class="scatter-point" transform="translate(934.1666,167.11868)">
<circle cx="0" cy="0" fill="#1b9e77" r="5"/>
</g>
<g class="scatter-point" transform="translate(1081.6666,147.45764)">
<circle cx="0" cy="0" fill="#1b9e77" r="5"/>
</g>
<g class="scatter-point" transform="translate(835.83325,176.94916)">
<circle cx="0" cy="0" fill="#1b9e77" r="5"/>
</g>
</g>
</g>
</g>
</svg>